# xmcd
#
# Track frame offsets:
#	150
#	9910
#	27063
#	45274
#	61591
#	79627
#	93852
#	110064
#	125254
#	143383
#	156299
#	169387
#	184906
#	199794
#	218002
#	233765
#	251936
#	271206
#	287498
#
# Disc length: 3992 seconds
#
# Revision: 4
# Processed by: cddbd v1.5.1PL0 Copyright (c) Steve Scherf et al.
# Submitted via: audiograbber 1.83.01
#
DISCID=f30f9613
DTITLE=2003-09 Country Radio - 2003-09 Country Radio
DYEAR=2003
DGENRE=Country
TTITLE0=Tracy Byrd - Drinkin' Bone
TTITLE1=Lonestar - Walking In Memphis
TTITLE2=Toby Keith - I Love This Bar
TTITLE3=George Strait - Cowboys Like Us
TTITLE4=Mark Wills - And Crowd Goes Wild
TTITLE5=Sawyer Brown - I'll Be Around
TTITLE6=Jeff Bates - Rainbow Man
TTITLE7=Reba McEntire - I'm Gonna Take That Mountain
TTITLE8=Jimmy Wayne - I Love You This Much
TTITLE9=Terri Clark - I Wanna Do It All
TTITLE10=Marty Stuart And His Fabulous Superlatives - If There Ain't There Ther
TTITLE10=e Ought'a Be
TTITLE11=Hank Williams Jr. - I'm One Of You
TTITLE12=Brad Wolf - Strickly Business
TTITLE13=Amy Dalley - I Think You're Beautiful
TTITLE14=Roxie Dean - Everyday Girl (Album Version)
TTITLE15=Mila Mason - Maybe, Maybe Not
TTITLE16=Leland Martin - Simply Traditional
TTITLE17=Brad and Shelly - Legally
TTITLE18=Memarie - I Need A Change
EXTD=
EXTT0=
EXTT1=
EXTT2=
EXTT3=
EXTT4=
EXTT5=
EXTT6=
EXTT7=
EXTT8=
EXTT9=
EXTT10=
EXTT11=
EXTT12=
EXTT13=
EXTT14=
EXTT15=
EXTT16=
EXTT17=
EXTT18=
PLAYORDER=
